<svg xmlns="http://www.w3.org/2000/svg" viewBox="192.83 415.75 196.48 54.58"><g><path transform="matrix(1,0,0,-1,236.3525,459.2328)" d="M0 0H-.834C-.993 0-1.065 .216-.94 .324L-.7 .531C-.496 .708-.242 .804 .02 .804H.854C1.014 .804 1.086 .589 .961 .48L.722 .273C.517 .096 .263 0 0 0" fill="#e12329"/><path transform="matrix(1,0,0,-1,237.4437,458.06129)" d="M0 0-.833-.058C-.991-.068-1.078 .142-.961 .258L-.736 .481C-.545 .672-.298 .785-.036 .803L.796 .861C.955 .873 1.041 .661 .924 .546L.7 .322C.508 .132 .262 .019 0 0" fill="#e12329"/><path transform="matrix(1,0,0,-1,238.4507,456.81629)" d="M0 0-.827-.117C-.985-.139-1.085 .066-.977 .19L-.769 .427C-.591 .631-.353 .761-.093 .797L.733 .914C.892 .937 .992 .732 .884 .609L.676 .37C.497 .166 .259 .037 0 0" fill="#e12329"/><path transform="matrix(1,0,0,-1,239.3675,455.5062)" d="M0 0-.817-.171C-.973-.205-1.087-.009-.987 .123L-.797 .375C-.634 .59-.405 .737-.149 .792L.667 .964C.824 .998 .937 .801 .839 .67L.647 .418C.484 .204 .255 .057 0 0" fill="#e12329"/><path transform="matrix(1,0,0,-1,240.1893,454.1324)" d="M0 0-.801-.23C-.955-.273-1.083-.086-.994 .053L-.82 .318C-.673 .543-.454 .706-.203 .778L.599 1.007C.754 1.052 .882 .864 .792 .726L.618 .46C.47 .235 .252 .072 0 0" fill="#e12329"/><path transform="matrix(1,0,0,-1,240.9147,452.70503)" d="M0 0-.783-.285C-.934-.341-1.074-.162-.994-.017L-.84 .259C-.708 .494-.502 .672-.255 .761L.528 1.046C.679 1.101 .819 .922 .74 .778L.584 .501C.454 .266 .247 .089 0 0" fill="#e12329"/><path transform="matrix(1,0,0,-1,241.5391,451.2306)" d="M0 0-.763-.341C-.908-.405-1.06-.237-.992-.087L-.856 .198C-.742 .443-.548 .634-.308 .741L.453 1.08C.599 1.145 .752 .976 .682 .827L.547 .541C.432 .297 .239 .106 0 0" fill="#e12329"/><path transform="matrix(1,0,0,-1,242.0589,449.71833)" d="M0 0-.737-.391C-.878-.467-1.043-.308-.983-.156L-.869 .139C-.77 .391-.592 .595-.36 .719L.377 1.11C.517 1.186 .682 1.028 .622 .875L.508 .58C.41 .327 .232 .123 0 0" fill="#e12329"/><path transform="matrix(1,0,0,-1,242.4718,448.1724)" d="M0 0-.708-.443C-.843-.527-1.017-.38-.97-.224L-.876 .079C-.796 .337-.632 .553-.409 .692L.298 1.133C.434 1.219 .609 1.073 .559 .916L.466 .614C.387 .355 .222 .139 0 0" fill="#e12329"/><path transform="matrix(1,0,0,-1,242.7751,446.60023)" d="M0 0-.675-.49C-.804-.584-.988-.452-.951-.292L-.879 .016C-.818 .279-.668 .506-.456 .66L.219 1.151C.348 1.246 .531 1.112 .495 .951L.422 .643C.362 .38 .211 .154 0 0" fill="#e12329"/><path transform="matrix(1,0,0,-1,242.9691,445.01313)" d="M0 0-.638-.535C-.762-.638-.955-.518-.928-.356L-.878-.044C-.835 .223-.703 .46-.502 .629L.137 1.165C.26 1.267 .453 1.147 .426 .986L.377 .673C.334 .406 .201 .17 0 0" fill="#e12329"/><path transform="matrix(1,0,0,-1,243.0513,443.41419)" d="M0 0-.6-.579C-.716-.691-.916-.585-.902-.421L-.874-.106C-.85 .164-.734 .41-.544 .592L.055 1.171C.17 1.282 .372 1.176 .356 1.011L.328 .696C.305 .428 .189 .182 0 0" fill="#e12329"/><path transform="matrix(1,0,0,-1,243.0216,441.81373)" d="M0 0-.559-.619C-.666-.739-.873-.647-.87-.483L-.864-.165C-.858 .104-.76 .357-.585 .553L-.027 1.172C.08 1.291 .289 1.199 .285 1.033L.279 .718C.273 .448 .174 .195 0 0" fill="#e12329"/><path transform="matrix(1,0,0,-1,242.8802,440.22059)" d="M0 0-.514-.656C-.612-.784-.826-.706-.835-.541L-.851-.224C-.864 .044-.783 .304-.621 .511L-.107 1.168C-.008 1.294 .204 1.217 .213 1.053L.229 .736C.243 .466 .161 .207 0 0" fill="#e12329"/><path transform="matrix(1,0,0,-1,242.6288,438.6397)" d="M0 0-.467-.691C-.557-.824-.775-.761-.796-.599L-.833-.284C-.866-.015-.804 .249-.657 .466L-.189 1.156C-.1 1.289 .119 1.227 .138 1.064L.176 .749C.209 .481 .145 .218 0 0" fill="#e12329"/><path transform="matrix(1,0,0,-1,242.2657,437.0817)" d="M0 0-.416-.721C-.496-.86-.719-.813-.75-.651L-.81-.34C-.861-.076-.816 .193-.685 .42L-.269 1.141C-.189 1.281 .034 1.234 .065 1.071L.125 .761C.175 .497 .131 .228 0 0" fill="#e12329"/><path transform="matrix(1,0,0,-1,241.797,435.5505)" d="M0 0-.366-.751C-.435-.893-.662-.863-.702-.703L-.784-.398C-.854-.137-.829 .134-.715 .37L-.348 1.119C-.279 1.262-.052 1.231-.011 1.073L.071 .767C.139 .506 .114 .235 0 0" fill="#e12329"/><path transform="matrix(1,0,0,-1,241.2217,434.05769)" d="M0 0-.313-.774C-.373-.921-.599-.906-.652-.749L-.755-.451C-.843-.195-.837 .076-.739 .32L-.426 1.093C-.366 1.241-.138 1.226-.087 1.07L.016 .77C.104 .514 .098 .243 0 0" fill="#e12329"/><path transform="matrix(1,0,0,-1,240.5435,432.6069)" d="M0 0-.259-.794C-.307-.945-.535-.947-.599-.795L-.721-.503C-.826-.254-.839 .017-.758 .266L-.501 1.06C-.451 1.211-.224 1.213-.16 1.06L-.036 .769C.069 .519 .081 .249 0 0" fill="#e12329"/><path transform="matrix(1,0,0,-1,239.7656,431.20973)" d="M0 0-.202-.809C-.24-.965-.467-.981-.542-.834L-.686-.551C-.808-.31-.838-.041-.776 .213L-.574 1.023C-.535 1.178-.308 1.194-.233 1.047L-.09 .765C.032 .525 .063 .254 0 0" fill="#e12329"/><path transform="matrix(1,0,0,-1,238.8927,429.8684)" d="M0 0-.145-.821C-.173-.978-.398-1.011-.483-.87L-.646-.598C-.783-.366-.835-.098-.788 .159L-.644 .98C-.616 1.138-.391 1.169-.307 1.029L-.144 .757C-.007 .525 .045 .259 0 0" fill="#e12329"/><path transform="matrix(1,0,0,-1,237.9274,428.5918)" d="M0 0-.088-.829C-.103-.988-.326-1.036-.42-.9L-.601-.641C-.755-.419-.825-.156-.798 .104L-.71 .932C-.693 1.093-.47 1.14-.378 1.005L-.196 .745C-.041 .524 .028 .262 0 0" fill="#e12329"/><path transform="matrix(1,0,0,-1,236.8752,427.384)" d="M0 0-.028-.833C-.034-.993-.252-1.056-.356-.928L-.553-.682C-.724-.471-.811-.215-.802 .047L-.773 .881C-.767 1.041-.549 1.104-.445 .975L-.246 .729C-.078 .519 .011 .261 0 0" fill="#e12329"/><path transform="matrix(1,0,0,-1,235.7428,426.25349)" d="M0 0 .028-.834C.035-.994-.179-1.072-.291-.952L-.506-.72C-.691-.522-.795-.271-.806-.009L-.834 .825C-.839 .984-.626 1.062-.512 .943L-.298 .71C-.115 .512-.009 .261 0 0" fill="#e12329"/><path transform="matrix(1,0,0,-1,234.5339,425.2057)" d="M0 0 .087-.829C.103-.988-.103-1.082-.224-.969L-.455-.752C-.652-.568-.774-.324-.802-.064L-.889 .765C-.906 .924-.698 1.016-.578 .905L-.347 .688C-.15 .504-.028 .261 0 0" fill="#e12329"/><path transform="matrix(1,0,0,-1,233.2547,424.2436)" d="M0 0 .144-.821C.172-.98-.029-1.086-.158-.982L-.403-.783C-.612-.612-.75-.379-.796-.121L-.94 .7C-.969 .858-.768 .965-.64 .862L-.394 .662C-.185 .491-.046 .258 0 0" fill="#e12329"/><path transform="matrix(1,0,0,-1,231.9104,423.37373)" d="M0 0 .202-.809C.241-.964 .049-1.086-.087-.99L-.345-.808C-.565-.653-.722-.429-.784-.176L-.987 .634C-1.024 .79-.833 .91-.697 .815L-.439 .634C-.219 .477-.063 .253 0 0" fill="#e12329"/><path transform="matrix(1,0,0,-1,230.5094,422.5987)" d="M0 0 .258-.793C.307-.945 .123-1.08-.017-.995L-.288-.83C-.52-.69-.689-.479-.77-.23L-1.028 .564C-1.078 .716-.894 .85-.753 .764L-.483 .6C-.251 .461-.081 .249 0 0" fill="#e12329"/><path transform="matrix(1,0,0,-1,229.0577,421.9255)" d="M0 0 .313-.772C.374-.92 .199-1.067 .052-.992L-.228-.848C-.469-.725-.653-.525-.751-.282L-1.064 .491C-1.124 .639-.951 .786-.805 .711L-.522 .566C-.281 .444-.098 .244 0 0" fill="#e12329"/><path transform="matrix(1,0,0,-1,227.5625,421.353)" d="M0 0 .366-.749C.436-.893 .273-1.051 .122-.987L-.17-.861C-.418-.756-.616-.57-.731-.333L-1.097 .416C-1.166 .559-1.004 .718-.852 .653L-.561 .528C-.312 .421-.114 .236 0 0" fill="#e12329"/><path transform="matrix(1,0,0,-1,226.0314,420.8864)" d="M0 0 .418-.722C.497-.861 .346-1.03 .19-.976L-.109-.872C-.364-.784-.575-.611-.706-.385L-1.123 .337C-1.204 .476-1.051 .645-.896 .591L-.597 .487C-.341 .399-.131 .227 0 0" fill="#e12329"/><path transform="matrix(1,0,0,-1,224.4707,420.5275)" d="M0 0 .467-.691C.557-.825 .416-1.005 .258-.961L-.047-.879C-.308-.807-.53-.65-.677-.434L-1.143 .258C-1.232 .39-1.094 .569-.934 .528L-.628 .444C-.368 .373-.145 .217 0 0" fill="#e12329"/><path transform="matrix(1,0,0,-1,222.8891,420.2792)" d="M0 0 .514-.656C.612-.783 .486-.972 .324-.939L.014-.879C-.252-.827-.484-.685-.645-.479L-1.158 .178C-1.257 .304-1.13 .492-.968 .461L-.659 .399C-.393 .347-.161 .207 0 0" fill="#e12329"/><path transform="matrix(1,0,0,-1,221.2956,420.1412)" d="M0 0 .558-.619C.665-.739 .552-.936 .387-.914L.075-.877C-.195-.841-.436-.718-.612-.523L-1.17 .097C-1.276 .216-1.164 .412-1 .392L-.686 .353C-.418 .321-.176 .195 0 0" fill="#e12329"/><path transform="matrix(1,0,0,-1,219.6944,420.1149)" d="M0 0 .601-.58C.715-.691 .616-.895 .451-.886L.136-.868C-.134-.854-.383-.747-.572-.565L-1.173 .015C-1.288 .125-1.189 .33-1.024 .322L-.709 .304C-.438 .289-.189 .182 0 0" fill="#e12329"/><path transform="matrix(1,0,0,-1,218.0961,420.20039)" d="M0 0 .638-.537C.762-.638 .676-.85 .512-.852L.195-.856C-.075-.862-.332-.772-.532-.603L-1.171-.067C-1.294 .036-1.209 .246-1.045 .248L-.728 .253C-.457 .257-.201 .168 0 0" fill="#e12329"/><path transform="matrix(1,0,0,-1,216.5078,420.3984)" d="M0 0 .675-.489C.804-.582 .734-.799 .57-.813L.254-.839C-.014-.863-.278-.791-.489-.637L-1.163-.147C-1.293-.053-1.224 .164-1.059 .178L-.744 .204C-.475 .226-.213 .156 0 0" fill="#e12329"/><path transform="matrix(1,0,0,-1,214.9358,420.70399)" d="M0 0 .708-.441C.843-.527 .789-.747 .626-.773L.313-.821C.047-.863-.22-.811-.443-.671L-1.15-.23C-1.286-.144-1.231 .076-1.069 .102L-.756 .15C-.489 .193-.222 .139 0 0" fill="#e12329"/><path transform="matrix(1,0,0,-1,213.3904,421.121)" d="M0 0 .737-.39C.877-.467 .839-.69 .678-.726L.37-.797C.106-.857-.164-.823-.394-.699L-1.132-.308C-1.273-.233-1.234-.009-1.074 .027L-.765 .099C-.502 .158-.232 .124 0 0" fill="#e12329"/><path transform="matrix(1,0,0,-1,211.8763,421.6432)" d="M0 0 .763-.337C.908-.404 .886-.63 .729-.678L.424-.77C.166-.848-.106-.833-.345-.726L-1.107-.387C-1.253-.321-1.23-.096-1.072-.047L-.769 .044C-.51 .122-.239 .107 0 0" fill="#e12329"/><path transform="matrix(1,0,0,-1,210.404,422.2687)" d="M0 0 .784-.286C.934-.341 .927-.568 .773-.626L.477-.739C.226-.836-.048-.839-.294-.749L-1.077-.465C-1.227-.41-1.22-.182-1.066-.124L-.77-.011C-.519 .085-.246 .089 0 0" fill="#e12329"/><path transform="matrix(1,0,0,-1,208.9786,422.9973)" d="M0 0 .802-.23C.955-.274 .965-.502 .815-.571L.527-.703C.282-.816 .011-.839-.24-.768L-1.043-.537C-1.196-.493-1.205-.266-1.055-.197L-.768-.064C-.523 .051-.252 .072 0 0" fill="#e12329"/><path transform="matrix(1,0,0,-1,207.6065,423.8227)" d="M0 0 .816-.174C.973-.207 .998-.432 .853-.513L.576-.665C.34-.795 .071-.836-.186-.782L-1.002-.609C-1.158-.576-1.183-.35-1.039-.27L-.761-.117C-.524 .013-.256 .054 0 0" fill="#e12329"/><path transform="matrix(1,0,0,-1,206.2964,424.7426)" d="M0 0 .826-.116C.984-.139 1.025-.361 .886-.451L.62-.623C.393-.77 .128-.829-.131-.792L-.958-.677C-1.116-.654-1.155-.431-1.018-.342L-.752-.169C-.524-.023-.259 .037 0 0" fill="#e12329"/><path transform="matrix(1,0,0,-1,205.0538,425.75123)" d="M0 0 .832-.058C.992-.068 1.047-.289 .915-.389L.661-.577C.446-.74 .185-.817-.076-.8L-.908-.742C-1.068-.731-1.124-.51-.992-.411L-.738-.221C-.523-.059-.262 .019 0 0" fill="#e12329"/><path transform="matrix(1,0,0,-1,203.8837,426.8418)" d="M0 0H.835C.994 0 1.066-.217 .94-.325L.701-.532C.497-.709 .243-.805-.019-.805H-.853C-1.014-.805-1.085-.588-.96-.481L-.721-.274C-.517-.098-.263 0 0 0" fill="#e12329"/><path transform="matrix(1,0,0,-1,202.7933,428.0149)" d="M0 0 .832 .058C.992 .069 1.078-.141 .962-.258L.736-.481C.545-.671 .298-.784 .037-.803L-.796-.861C-.955-.872-1.041-.661-.924-.545L-.7-.323C-.508-.131-.262-.019 0 0" fill="#e12329"/><path transform="matrix(1,0,0,-1,201.7876,429.25843)" d="M0 0 .826 .115C.984 .137 1.084-.067 .976-.191L.768-.429C.59-.632 .352-.763 .092-.799L-.733-.916C-.892-.938-.992-.734-.885-.609L-.676-.371C-.498-.168-.26-.036 0 0" fill="#e12329"/><path transform="matrix(1,0,0,-1,200.8702,430.57063)" d="M0 0 .816 .173C.973 .206 1.087 .01 .987-.121L.796-.374C.633-.589 .404-.735 .148-.79L-.668-.963C-.824-.997-.938-.8-.839-.669L-.647-.417C-.484-.201-.255-.054 0 0" fill="#e12329"/><path transform="matrix(1,0,0,-1,200.0464,431.94349)" d="M0 0 .802 .231C.956 .275 1.084 .085 .994-.051L.82-.317C.673-.543 .455-.706 .203-.778L-.599-1.008C-.752-1.053-.88-.864-.791-.726L-.617-.46C-.469-.235-.251-.072 0 0" fill="#e12329"/><path transform="matrix(1,0,0,-1,199.3224,433.3697)" d="M0 0 .784 .284C.934 .339 1.074 .16 .994 .017L.84-.26C.708-.496 .502-.674 .255-.761L-.528-1.048C-.678-1.102-.82-.924-.74-.78L-.585-.503C-.453-.267-.247-.089 0 0" fill="#e12329"/><path transform="matrix(1,0,0,-1,198.698,434.8428)" d="M0 0 .762 .338C.908 .403 1.06 .235 .991 .085L.856-.201C.742-.446 .548-.636 .308-.743L-.454-1.083C-.6-1.147-.752-.978-.682-.83L-.548-.543C-.433-.299-.239-.108 0 0" fill="#e12329"/><path transform="matrix(1,0,0,-1,198.178,436.35713)" d="M0 0 .737 .391C.878 .466 1.043 .308 .983 .156L.869-.14C.771-.391 .592-.597 .36-.718L-.376-1.11C-.517-1.186-.682-1.029-.621-.875L-.509-.579C-.41-.328-.23-.124 0 0" fill="#e12329"/><path transform="matrix(1,0,0,-1,197.7656,437.9037)" d="M0 0 .707 .442C.843 .527 1.017 .38 .969 .224L.876-.079C.796-.337 .631-.553 .41-.692L-.299-1.133C-.434-1.219-.609-1.073-.56-.915L-.467-.613C-.387-.355-.222-.139 0 0" fill="#e12329"/><path transform="matrix(1,0,0,-1,197.4613,439.4745)" d="M0 0 .676 .491C.805 .584 .989 .451 .952 .291L.88-.017C.818-.28 .669-.508 .456-.663L-.218-1.152C-.347-1.247-.531-1.113-.494-.953L-.422-.645C-.36-.382-.212-.155 0 0" fill="#e12329"/><path transform="matrix(1,0,0,-1,197.2673,441.0628)" d="M0 0 .639 .536C.762 .639 .956 .518 .929 .356L.878 .044C.837-.223 .703-.46 .502-.629L-.137-1.164C-.259-1.267-.453-1.148-.426-.986L-.377-.673C-.333-.406-.2-.169 0 0" fill="#e12329"/><path transform="matrix(1,0,0,-1,197.1865,442.662)" d="M0 0 .599 .581C.714 .69 .915 .584 .9 .42L.873 .105C.849-.164 .732-.409 .544-.592L-.057-1.171C-.172-1.281-.373-1.176-.358-1.012L-.329-.696C-.305-.428-.19-.182 0 0" fill="#e12329"/><path transform="matrix(1,0,0,-1,197.2154,444.26173)" d="M0 0 .558 .619C.666 .737 .873 .646 .87 .482L.863 .165C.858-.104 .76-.358 .583-.552L.026-1.172C-.081-1.291-.289-1.199-.286-1.034L-.279-.718C-.274-.447-.176-.195 0 0" fill="#e12329"/><path transform="matrix(1,0,0,-1,197.3568,445.8554)" d="M0 0 .513 .657C.613 .782 .825 .705 .834 .542L.851 .224C.863-.044 .783-.304 .621-.511L.107-1.168C.009-1.294-.205-1.216-.213-1.052L-.23-.735C-.243-.467-.162-.205 0 0" fill="#e12329"/><path transform="matrix(1,0,0,-1,197.6095,447.43629)" d="M0 0 .466 .691C.555 .825 .774 .763 .793 .599L.832 .284C.863 .017 .801-.247 .655-.465L.188-1.156C.099-1.29-.121-1.227-.14-1.063L-.177-.75C-.21-.482-.147-.218 0 0" fill="#e12329"/><path transform="matrix(1,0,0,-1,197.9704,448.99513)" d="M0 0 .417 .723C.497 .861 .72 .813 .751 .652L.811 .341C.861 .077 .818-.192 .686-.419L.269-1.141C.189-1.279-.034-1.233-.065-1.071L-.124-.76C-.174-.495-.13-.227 0 0" fill="#e12329"/><path transform="matrix(1,0,0,-1,198.4406,450.52479)" d="M0 0 .366 .75C.436 .893 .661 .862 .702 .703L.783 .397C.854 .137 .828-.133 .713-.37L.347-1.12C.278-1.263 .051-1.232 .009-1.073L-.071-.768C-.141-.506-.116-.236 0 0" fill="#e12329"/><path transform="matrix(1,0,0,-1,199.0159,452.0182)" d="M0 0 .312 .773C.372 .922 .599 .907 .652 .75L.755 .451C.842 .195 .836-.076 .738-.32L.426-1.092C.366-1.241 .139-1.225 .086-1.069L-.017-.771C-.103-.515-.098-.244 0 0" fill="#e12329"/><path transform="matrix(1,0,0,-1,199.6935,453.4674)" d="M0 0 .258 .792C.307 .946 .534 .946 .598 .794L.721 .502C.826 .254 .839-.018 .758-.267L.501-1.06C.451-1.213 .224-1.213 .16-1.062L.038-.77C-.068-.52-.08-.25 0 0" fill="#e12329"/><path transform="matrix(1,0,0,-1,200.4708,454.8664)" d="M0 0 .202 .809C.24 .965 .469 .981 .542 .833L.686 .552C.807 .311 .838 .041 .776-.213L.573-1.023C.535-1.178 .308-1.194 .234-1.047L.091-.765C-.031-.525-.063-.254 0 0" fill="#e12329"/><path transform="matrix(1,0,0,-1,201.3436,456.2071)" d="M0 0 .145 .821C.173 .978 .398 1.011 .483 .87L.646 .598C.784 .366 .834 .098 .789-.159L.645-.98C.616-1.138 .392-1.17 .307-1.029L.144-.757C.007-.525-.044-.259 0 0" fill="#e12329"/><path transform="matrix(1,0,0,-1,202.3083,457.4843)" d="M0 0 .088 .829C.104 .988 .326 1.036 .422 .901L.602 .641C.757 .419 .826 .156 .798-.104L.711-.933C.694-1.091 .471-1.14 .378-1.005L.197-.744C.043-.524-.026-.26 0 0" fill="#e12329"/><path transform="matrix(1,0,0,-1,203.3609,458.6922)" d="M0 0 .03 .834C.035 .993 .253 1.057 .356 .929L.556 .682C.725 .472 .812 .215 .802-.047L.773-.881C.769-1.04 .55-1.103 .447-.975L.248-.729C.078-.518-.009-.261 0 0" fill="#e12329"/><path transform="matrix(1,0,0,-1,204.4941,459.8228)" d="M0 0-.029 .834C-.033 .995 .179 1.072 .291 .951L.506 .72C.69 .523 .795 .271 .805 .01L.833-.823C.838-.984 .625-1.062 .512-.941L.298-.709C.115-.511 .009-.26 0 0" fill="#e12329"/><path transform="matrix(1,0,0,-1,205.7037,460.8703)" d="M0 0-.087 .829C-.104 .988 .102 1.082 .223 .969L.455 .752C.652 .568 .773 .325 .802 .064L.889-.766C.905-.924 .698-1.016 .579-.905L.346-.688C.149-.504 .027-.261 0 0" fill="#e12329"/><path transform="matrix(1,0,0,-1,206.9829,461.8318)" d="M0 0-.145 .821C-.172 .978 .028 1.086 .156 .982L.402 .782C.611 .611 .749 .377 .794 .12L.94-.701C.967-.858 .767-.965 .64-.862L.393-.662C.185-.491 .045-.259 0 0" fill="#e12329"/><path transform="matrix(1,0,0,-1,208.3266,462.7025)" d="M0 0-.202 .809C-.241 .964-.048 1.086 .087 .991L.345 .808C.566 .653 .721 .43 .784 .175L.987-.633C1.025-.789 .832-.909 .698-.814L.439-.633C.218-.477 .063-.254 0 0" fill="#e12329"/><path transform="matrix(1,0,0,-1,209.7276,463.4768)" d="M0 0-.258 .793C-.307 .945-.124 1.079 .017 .994L.288 .83C.518 .69 .689 .479 .77 .23L1.028-.564C1.078-.715 .893-.85 .752-.765L.482-.601C.251-.461 .081-.249 0 0" fill="#e12329"/><path transform="matrix(1,0,0,-1,211.1793,464.15083)" d="M0 0-.313 .772C-.373 .921-.199 1.067-.052 .992L.229 .849C.47 .725 .655 .525 .752 .282L1.064-.491C1.126-.639 .952-.786 .805-.711L.523-.566C.282-.444 .098-.244 0 0" fill="#e12329"/><path transform="matrix(1,0,0,-1,212.6745,464.72303)" d="M0 0-.365 .749C-.436 .893-.273 1.052-.121 .987L.17 .862C.418 .755 .616 .569 .732 .334L1.097-.415C1.166-.559 1.004-.717 .852-.652L.561-.528C.313-.421 .115-.236 0 0" fill="#e12329"/><path transform="matrix(1,0,0,-1,214.2062,465.189)" d="M0 0-.417 .722C-.498 .861-.347 1.03-.19 .975L.109 .872C.365 .783 .574 .611 .705 .384L1.122-.337C1.203-.477 1.051-.646 .895-.591L.597-.488C.341-.399 .131-.227 0 0" fill="#e12329"/><path transform="matrix(1,0,0,-1,215.7655,465.5464)" d="M0 0-.467 .689C-.556 .823-.416 1.003-.257 .959L.047 .877C.309 .806 .531 .648 .678 .431L1.144-.26C1.233-.392 1.094-.572 .935-.529L.629-.446C.368-.375 .146-.218 0 0" fill="#e12329"/><path transform="matrix(1,0,0,-1,217.3471,465.7962)" d="M0 0-.513 .656C-.612 .782-.485 .972-.324 .939L-.014 .878C.252 .826 .484 .685 .646 .479L1.159-.178C1.257-.304 1.131-.493 .969-.462L.659-.4C.393-.348 .162-.208 0 0" fill="#e12329"/><path transform="matrix(1,0,0,-1,218.9414,465.935)" d="M0 0-.558 .619C-.665 .739-.552 .936-.388 .915L-.075 .877C.194 .844 .435 .719 .611 .523L1.169-.096C1.275-.215 1.163-.413 .999-.392L.685-.352C.418-.318 .176-.195 0 0" fill="#e12329"/><path transform="matrix(1,0,0,-1,220.5426,465.96119)" d="M0 0-.6 .58C-.715 .691-.617 .895-.451 .886L-.135 .868C.135 .854 .384 .747 .573 .566L1.173-.015C1.288-.125 1.189-.33 1.024-.321L.708-.304C.438-.289 .189-.181 0 0" fill="#e12329"/><path transform="matrix(1,0,0,-1,222.1408,465.8756)" d="M0 0-.639 .537C-.761 .64-.677 .85-.513 .853L-.196 .857C.074 .862 .331 .772 .531 .603L1.171 .067C1.293-.035 1.21-.246 1.044-.249L.727-.252C.457-.257 .201-.168 0 0" fill="#e12329"/><path transform="matrix(1,0,0,-1,223.7304,465.67903)" d="M0 0-.676 .49C-.804 .584-.735 .801-.571 .815L-.255 .841C.013 .864 .276 .793 .488 .638L1.164 .149C1.293 .055 1.223-.162 1.059-.174L.743-.203C.474-.225 .212-.154 0 0" fill="#e12329"/><path transform="matrix(1,0,0,-1,225.3006,465.3722)" d="M0 0-.707 .444C-.843 .527-.789 .748-.626 .773L-.313 .821C-.046 .862 .221 .811 .444 .671L1.151 .23C1.287 .145 1.232-.076 1.069-.102L.757-.15C.489-.192 .224-.138 0 0" fill="#e12329"/><path transform="matrix(1,0,0,-1,226.8479,464.9552)" d="M0 0-.737 .391C-.878 .467-.839 .69-.679 .727L-.371 .797C-.107 .857 .163 .823 .395 .7L1.131 .308C1.272 .234 1.234 .009 1.073-.027L.764-.097C.5-.158 .23-.124 0 0" fill="#e12329"/><path transform="matrix(1,0,0,-1,228.3605,464.4333)" d="M0 0-.762 .34C-.908 .405-.886 .63-.729 .679L-.425 .77C-.167 .847 .104 .833 .344 .726L1.106 .388C1.252 .322 1.229 .096 1.072 .048L.77-.044C.511-.121 .239-.107 0 0" fill="#e12329"/><path transform="matrix(1,0,0,-1,229.8337,463.8073)" d="M0 0-.784 .287C-.935 .341-.927 .568-.775 .627L-.477 .739C-.224 .835 .047 .839 .293 .749L1.076 .465C1.227 .41 1.22 .182 1.067 .123L.77 .011C.517-.086 .246-.089 0 0" fill="#e12329"/><path transform="matrix(1,0,0,-1,231.2591,463.0788)" d="M0 0-.802 .231C-.955 .274-.965 .502-.816 .572L-.528 .704C-.282 .818-.011 .839 .24 .768L1.043 .537C1.196 .493 1.205 .266 1.055 .197L.767 .064C.523-.05 .252-.072 0 0" fill="#e12329"/><path transform="matrix(1,0,0,-1,232.6296,462.2525)" d="M0 0-.816 .173C-.973 .207-.997 .432-.852 .512L-.575 .665C-.339 .794-.069 .836 .187 .781L1.003 .608C1.159 .574 1.183 .349 1.04 .269L.761 .116C.525-.013 .257-.054 0 0" fill="#e12329"/><path transform="matrix(1,0,0,-1,233.9411,461.3342)" d="M0 0-.827 .117C-.987 .139-1.026 .362-.887 .452L-.621 .623C-.395 .77-.128 .831 .13 .795L.956 .678C1.114 .655 1.154 .432 1.017 .343L.75 .171C.523 .024 .259-.036 0 0" fill="#e12329"/><path transform="matrix(1,0,0,-1,235.1833,460.32563)" d="M0 0-.832 .059C-.991 .07-1.048 .289-.915 .389L-.661 .579C-.447 .74-.185 .819 .076 .8L.908 .743C1.068 .731 1.124 .511 .992 .412L.737 .221C.522 .06 .261-.017 0 0" fill="#e12329"/><path transform="matrix(1,0,0,-1,218.1509,424.66059)" d="M0 0 1.218 .876 .747 2.314 1.957 1.426 3.179 2.319 2.708 .894 3.935 .007 2.434 .014 1.97-1.426 1.513 .004Z" fill="#e12329"/><path transform="matrix(1,0,0,-1,211.2679,426.8124)" d="M0 0 .79 1.276-.196 2.424 1.262 2.067 2.049 3.359 2.16 1.862 3.632 1.513 2.243 .945 2.365-.563 1.396 .583Z" fill="#e12329"/><path transform="matrix(1,0,0,-1,205.7321,431.4344)" d="M0 0 .242 1.481-1.108 2.165 .375 2.393 .608 3.887 1.283 2.547 2.777 2.788 1.711 1.731 2.401 .385 1.067 1.072Z" fill="#e12329"/><path transform="matrix(1,0,0,-1,202.3866,437.8229)" d="M0 0-.344 1.461-1.852 1.576-.569 2.354-.926 3.824 .211 2.844 1.499 3.638 .918 2.254 2.071 1.275 .575 1.399Z" fill="#e12329"/><path transform="matrix(1,0,0,-1,201.7408,445.0053)" d="M0 0-.877 1.218-2.314 .747-1.426 1.957-2.319 3.179-.894 2.708-.008 3.935-.014 2.434 1.425 1.97-.004 1.513Z" fill="#e12329"/><path transform="matrix(1,0,0,-1,203.8925,451.8886)" d="M0 0-1.276 .79-2.424-.195-2.067 1.262-3.359 2.05-1.862 2.161-1.513 3.632-.945 2.243 .563 2.366-.582 1.396Z" fill="#e12329"/><path transform="matrix(1,0,0,-1,208.5144,457.4241)" d="M0 0-1.481 .242-2.165-1.108-2.393 .375-3.887 .608-2.547 1.283-2.787 2.777-1.731 1.711-.385 2.401-1.072 1.067Z" fill="#e12329"/><path transform="matrix(1,0,0,-1,214.9029,460.7696)" d="M0 0-1.461-.343-1.576-1.852-2.354-.569-3.824-.926-2.844 .211-3.638 1.499-2.254 .918-1.274 2.071-1.399 .575Z" fill="#e12329"/><path transform="matrix(1,0,0,-1,222.0855,461.4156)" d="M0 0-1.218-.876-.747-2.314-1.957-1.426-3.179-2.319-2.708-.894-3.935-.007-2.434-.014-1.97 1.425-1.513-.004Z" fill="#e12329"/><path transform="matrix(1,0,0,-1,228.9685,459.26393)" d="M0 0-.79-1.276 .195-2.424-1.262-2.067-2.05-3.359-2.16-1.862-3.632-1.512-2.243-.944-2.366 .564-1.396-.583Z" fill="#e12329"/><path transform="matrix(1,0,0,-1,234.5041,454.64179)" d="M0 0-.242-1.481 1.108-2.165-.375-2.393-.608-3.887-1.283-2.547-2.777-2.787-1.711-1.731-2.401-.385-1.067-1.073Z" fill="#e12329"/><path transform="matrix(1,0,0,-1,237.8496,448.25343)" d="M0 0 .343-1.461 1.852-1.576 .569-2.354 .926-3.824-.211-2.844-1.499-3.638-.918-2.254-2.071-1.275-.575-1.399Z" fill="#e12329"/><path transform="matrix(1,0,0,-1,238.4957,441.07093)" d="M0 0 .876-1.218 2.314-.747 1.426-1.957 2.319-3.179 .894-2.708 .008-3.935 .014-2.434-1.426-1.97 .004-1.513Z" fill="#e12329"/><path transform="matrix(1,0,0,-1,236.3439,434.18769)" d="M0 0 1.276-.79 2.424 .195 2.067-1.262 3.359-2.049 1.862-2.16 1.512-3.632 .945-2.243-.563-2.366 .583-1.396Z" fill="#e12329"/><path transform="matrix(1,0,0,-1,231.7221,428.6521)" d="M0 0 1.481-.242 2.165 1.108 2.393-.375 3.887-.608 2.547-1.283 2.787-2.777 1.731-1.711 .385-2.401 1.072-1.067Z" fill="#e12329"/><path transform="matrix(1,0,0,-1,225.3334,425.3067)" d="M0 0 1.461 .344 1.576 1.852 2.354 .569 3.824 .926 2.844-.211 3.638-1.499 2.254-.918 1.275-2.071 1.399-.575Z" fill="#e12329"/><path transform="matrix(1,0,0,-1,220.1191,454.90089)" d="M0 0C-6.542 0-11.864 5.322-11.864 11.864-11.864 18.406-6.542 23.728 0 23.728 6.542 23.728 11.864 18.406 11.864 11.864 11.864 5.322 6.542 0 0 0M0 23.381C-6.351 23.381-11.517 18.214-11.517 11.864-11.517 5.513-6.351 .347 0 .347 6.351 .347 11.517 5.513 11.517 11.864 11.517 18.214 6.351 23.381 0 23.381" fill="#e12329"/><path transform="matrix(1,0,0,-1,220.1191,459.01173)" d="M0 0C-8.809 0-15.974 7.166-15.974 15.974-15.974 24.782-8.809 31.948 0 31.948 8.808 31.948 15.974 24.782 15.974 15.974 15.974 7.166 8.808 0 0 0M0 31.591C-8.611 31.591-15.617 24.585-15.617 15.974-15.617 7.363-8.611 .358 0 .358 8.611 .358 15.616 7.363 15.616 15.974 15.616 24.585 8.611 31.591 0 31.591" fill="#e12329"/><path transform="matrix(1,0,0,-1,216.1947,456.6409)" d="M0 0 .497-.153 .389-.505-1.034-.067-.926 .284-.42 .129 .04 1.629 .461 1.501Z" fill="#e12329"/><path transform="matrix(1,0,0,-1,214.0367,456.2308)" d="M0 0 .493 1.001C.64 1.3 .601 1.508 .4 1.608 .193 1.709 .009 1.62-.142 1.313L-.634 .312-1.027 .505-.547 1.481C-.283 2.017 .114 2.14 .568 1.916 1.006 1.7 1.145 1.331 .872 .776L.395-.194ZM-.561-.066C-.611-.167-.724-.207-.824-.158-.922-.11-.959 .004-.909 .105-.863 .201-.751 .245-.65 .196-.547 .144-.514 .03-.561-.066M-.025-.33C-.074-.431-.19-.471-.29-.421-.386-.374-.422-.26-.373-.159-.326-.064-.215-.019-.116-.068-.013-.118 .022-.235-.025-.33" fill="#e12329"/><path transform="matrix(1,0,0,-1,212.2001,455.1989)" d="M0 0C-.128 .064-.309 .172-.497 .309-.731 .477-.869 .629-.918 .799-.958 .941-.93 1.088-.826 1.233-.681 1.433-.44 1.468-.269 1.42L-.264 1.427C-.341 1.55-.327 1.699-.262 1.872-.183 2.085-.085 2.326-.071 2.409L.293 2.147C.287 2.084 .232 1.928 .139 1.701 .04 1.474 .069 1.372 .212 1.265L.319 1.188 .765 1.807 1.117 1.553ZM.134 .932-.005 1.032C-.183 1.16-.352 1.147-.451 1.009-.555 .864-.509 .722-.347 .601-.261 .539-.207 .511-.178 .497Z" fill="#e12329"/><path transform="matrix(1,0,0,-1,210.3707,453.8204)" d="M0 0-.308 .306 .296 .913 .29 .919C.207 .897 .125 .88 .046 .861L-.719 .715-1.1 1.094-.065 1.227 .241 2.491 .603 2.131 .35 1.204 .612 1.231 1.058 1.679 1.365 1.373Z" fill="#e12329"/><path transform="matrix(1,0,0,-1,208.5381,452.30763)" d="M0 0C-.088-.07-.211-.052-.281 .037-.347 .122-.331 .242-.242 .31-.161 .374-.037 .365 .031 .279 .101 .188 .082 .063 0 0M-.014 .518 1.515 1.711 1.786 1.364 .257 .171Z" fill="#e12329"/><path transform="matrix(1,0,0,-1,209.4347,449.69819)" d="M0 0-.68-.409-1.345-1.522-1.602-1.094-1.305-.684C-1.216-.56-1.148-.473-1.065-.365L-1.068-.36C-1.193-.385-1.313-.404-1.461-.425L-1.961-.498-2.214-.077-.917-.042-.225 .374Z" fill="#e12329"/><path transform="matrix(1,0,0,-1,207.4877,447.58253)" d="M0 0 .271-.661 .697-.487 .395 .251 .728 .388 1.197-.757-.598-1.493-1.052-.385-.719-.248-.432-.948-.059-.796-.33-.135Z" fill="#e12329"/><path transform="matrix(1,0,0,-1,207.5343,444.4938)" d="M0 0C.054-.073 .128-.244 .169-.477 .285-1.136-.066-1.548-.61-1.644-1.261-1.759-1.706-1.358-1.807-.78-1.847-.557-1.831-.378-1.805-.295L-1.447-.322C-1.468-.417-1.481-.544-1.454-.697-1.393-1.04-1.14-1.27-.715-1.195-.333-1.128-.132-.858-.2-.473-.223-.343-.277-.204-.325-.124Z" fill="#e12329"/><path transform="matrix(1,0,0,-1,205.593,443.55183)" d="M0 0 1.115 .014C1.449 .018 1.617 .147 1.614 .371 1.611 .601 1.448 .726 1.106 .721L-.009 .707-.015 1.144 1.072 1.158C1.67 1.166 1.958 .867 1.965 .362 1.971-.127 1.705-.418 1.086-.426L.006-.44Z" fill="#e12329"/><path transform="matrix(1,0,0,-1,207.105,440.0242)" d="M0 0C-.23 .033-.509 .075-.786 .125L-.788 .116C-.556 .013-.298-.116-.088-.229L.613-.596 .552-.933-.222-1.003C-.457-1.024-.74-1.04-.997-1.04L-.998-1.046C-.743-1.104-.45-1.165-.216-1.223L.502-1.388 .43-1.786-1.454-1.319-1.35-.746-.68-.674C-.449-.655-.2-.639 .031-.637L.033-.628C-.179-.535-.418-.424-.619-.323L-1.216-.005-1.114 .558 .811 .317 .735-.104Z" fill="#e12329"/><path transform="matrix(1,0,0,-1,206.4652,438.0188)" d="M0 0 .692-.273 .957 .397 .265 .671 .426 1.077 2.227 .366 2.067-.04 1.313 .257 1.048-.414 1.802-.712 1.64-1.121-.162-.409Z" fill="#e12329"/><path transform="matrix(1,0,0,-1,207.5628,435.6902)" d="M0 0 .948-.586C1.232-.761 1.443-.742 1.561-.552 1.681-.356 1.611-.164 1.32 .016L.371 .601 .601 .973 1.525 .402C2.034 .088 2.117-.318 1.851-.748 1.594-1.164 1.214-1.266 .688-.941L-.231-.374Z" fill="#e12329"/><path transform="matrix(1,0,0,-1,208.7587,433.9667)" d="M0 0C.076 .122 .201 .291 .354 .466 .543 .683 .708 .806 .881 .838 1.026 .865 1.169 .824 1.304 .706 1.49 .543 1.503 .3 1.438 .134L1.445 .128C1.575 .194 1.722 .165 1.888 .085 2.093-.013 2.323-.134 2.404-.155L2.109-.494C2.047-.482 1.898-.411 1.68-.298 1.464-.178 1.359-.198 1.24-.33L1.153-.429 1.727-.931 1.441-1.258ZM.914-.221 1.028-.091C1.172 .073 1.174 .243 1.046 .354 .912 .471 .765 .439 .631 .289 .561 .209 .527 .158 .511 .131Z" fill="#e12329"/><path transform="matrix(1,0,0,-1,210.0979,432.0656)" d="M0 0C-.075 .084-.065 .207 .018 .282 .1 .355 .219 .346 .294 .262 .363 .185 .362 .061 .28-.012 .195-.088 .069-.077 0 0M.516 .047 1.806-1.399 1.477-1.692 .188-.245Z" fill="#e12329"/><path transform="matrix(1,0,0,-1,212.7642,432.784)" d="M0 0-.452 .652-1.608 1.245-1.196 1.53-.768 1.259C-.638 1.178-.546 1.116-.433 1.04L-.429 1.043C-.462 1.167-.488 1.285-.52 1.431L-.624 1.926-.219 2.206-.101 .913 .36 .249Z" fill="#e12329"/><path transform="matrix(1,0,0,-1,214.746,430.70423)" d="M0 0-.641-.314-.439-.727 .276-.377 .434-.7-.676-1.243-1.527 .499-.452 1.024-.295 .701-.974 .369-.797 .007-.157 .32Z" fill="#e12329"/><path transform="matrix(1,0,0,-1,215.5909,429.58363)" d="M0 0-.496-.158-.608 .193 .811 .646 .924 .296 .419 .134 .898-1.361 .479-1.496Z" fill="#e12329"/><path transform="matrix(1,0,0,-1,217.0805,428.4797)" d="M0 0C-.021 .11 .05 .212 .16 .233 .267 .254 .365 .185 .387 .075 .407-.027 .342-.133 .235-.154 .122-.175 .02-.102 0 0M.468-.223 .838-2.126 .406-2.21 .036-.306Z" fill="#e12329"/><path transform="matrix(1,0,0,-1,220.9925,429.6832)" d="M0 0C-.004 .233-.008 .514-.003 .796H-.012C-.076 .55-.162 .276-.24 .05L-.49-.702-.832-.695-1.025 .058C-1.084 .286-1.145 .564-1.187 .817H-1.193C-1.209 .556-1.223 .257-1.241 .016L-1.289-.719-1.694-.711-1.536 1.222-.953 1.213-.775 .563C-.718 .337-.662 .094-.623-.133H-.615C-.556 .09-.486 .345-.418 .559L-.2 1.199 .372 1.189 .444-.75 .016-.742Z" fill="#e12329"/><path transform="matrix(1,0,0,-1,222.7986,428.7139)" d="M0 0-.324-1.912-.758-1.839-.435 .073ZM-.36 .373C-.342 .484-.239 .554-.128 .535-.021 .517 .047 .418 .028 .308 .011 .205-.086 .128-.194 .147-.308 .166-.377 .271-.36 .373" fill="#e12329"/><path transform="matrix(1,0,0,-1,223.676,428.8957)" d="M0 0 .423-.123-.017-1.633 .724-1.849 .621-2.202-.543-1.863Z" fill="#e12329"/><path transform="matrix(1,0,0,-1,225.5584,429.5111)" d="M0 0 .401-.179-.239-1.612 .465-1.926 .315-2.262-.79-1.769Z" fill="#e12329"/><path transform="matrix(1,0,0,-1,227.6878,430.5881)" d="M0 0-.982-1.67-1.362-1.447-.379 .224ZM.182 .424 .253-.028-.012 .128-.045 .354-.05 .357-.265 .276-.527 .431-.1 .59Z" fill="#e12329"/><path transform="matrix(1,0,0,-1,229.3965,433.2847)" d="M0 0-.537 .469-.84 .122-.239-.402-.476-.673-1.408 .141-.133 1.602 .769 .815 .532 .544-.038 1.041-.303 .738 .235 .268Z" fill="#e12329"/><path transform="matrix(1,0,0,-1,230.4164,435.52729)" d="M0 0C-.122 .074-.335 .23-.499 .427-.725 .698-.82 .952-.802 1.199-.788 1.443-.657 1.68-.436 1.86 .06 2.27 .643 2.146 1.05 1.658 1.21 1.466 1.296 1.287 1.321 1.185L.993 1.031C.96 1.142 .904 1.267 .768 1.431 .534 1.711 .198 1.79-.124 1.522-.431 1.265-.452 .923-.221 .647-.157 .569-.097 .515-.061 .499L.25 .759 .059 .988 .321 1.207 .784 .653ZM1.219 2.174C1.176 2.126 1.151 2.049 1.226 1.959 1.303 1.866 1.381 1.871 1.443 1.904L1.587 1.732C1.423 1.602 1.226 1.599 1.051 1.809 .869 2.027 .912 2.213 1.072 2.351Z" fill="#e12329"/><path transform="matrix(1,0,0,-1,232.5491,435.4418)" d="M0 0-1.636-1.034-1.871-.663-.235 .371ZM.037 .517C.132 .576 .253 .547 .312 .452 .37 .36 .342 .243 .247 .184 .161 .128 .038 .15-.02 .242-.082 .339-.05 .461 .037 .517" fill="#e12329"/><path transform="matrix(1,0,0,-1,232.8211,436.6895)" d="M0 0-.225 .469 .107 .628 .751-.714 .419-.873 .19-.397-1.224-1.076-1.415-.679Z" fill="#e12329"/><path transform="matrix(1,0,0,-1,233.9664,438.5105)" d="M0 0-1.835-.628-1.978-.211-.142 .417ZM.156 .494C.263 .531 .373 .474 .41 .368 .445 .265 .391 .158 .284 .121 .186 .088 .072 .137 .037 .241-.001 .349 .059 .46 .156 .494" fill="#e12329"/><path transform="matrix(1,0,0,-1,233.3759,441.2373)" d="M0 0C.228 .05 .504 .109 .781 .159L.78 .167C.526 .183 .239 .213 .002 .246L-.784 .344-.845 .681-.143 1.018C.069 1.121 .33 1.235 .57 1.326V1.332C.31 1.296 .014 1.251-.227 1.223L-.958 1.125-1.03 1.525 .901 1.748 1.005 1.173 .401 .871C.191 .771-.036 .669-.252 .587L-.25 .578C-.02 .564 .244 .544 .467 .521L1.138 .431 1.241-.133-.649-.582-.725-.16Z" fill="#e12329"/><path transform="matrix(1,0,0,-1,234.6641,443.32209)" d="M0 0C.015-.116 .017-.35 .003-.568-.015-.835-.051-.996-.144-1.132-.225-1.262-.363-1.351-.538-1.339-.711-1.328-.865-1.217-.931-.994L-.936-.993C-1.011-1.21-1.188-1.363-1.438-1.346-1.613-1.334-1.746-1.245-1.835-1.118-1.938-.971-1.986-.731-1.96-.346-1.946-.131-1.921 .029-1.9 .126ZM-1.627-.328C-1.636-.37-1.639-.422-1.644-.496-1.657-.694-1.594-.875-1.39-.888-1.195-.901-1.106-.731-1.092-.513L-1.082-.364ZM-.769-.385-.778-.528C-.794-.757-.707-.887-.564-.897-.418-.906-.333-.799-.32-.601-.313-.507-.315-.452-.319-.414Z" fill="#e12329"/><path transform="matrix(1,0,0,-1,232.9647,445.6969)" d="M0 0-.453 .247-.35 .689 1.402-.328 1.272-.887-.751-1.032-.644-.573-.126-.54ZM.207-.553 .635-.529C.755-.522 .903-.52 1.021-.518L1.022-.513C.917-.459 .781-.398 .679-.342L.305-.136Z" fill="#e12329"/><path transform="matrix(1,0,0,-1,233.8372,447.9477)" d="M0 0-.166-.401-.958-.073-.962-.081C-.909-.15-.863-.218-.816-.284L-.389-.938-.595-1.435-1.112-.526-2.399-.724-2.203-.251-1.248-.134-1.373 .099-1.957 .341-1.791 .742Z" fill="#e12329"/><path transform="matrix(1,0,0,-1,231.3724,449.7599)" d="M0 0-.346 .383-.104 .766 1.216-.77 .909-1.255-1.048-.727-.796-.329-.296-.469ZM.014-.591 .425-.709C.541-.74 .681-.788 .793-.825L.796-.82C.715-.735 .606-.632 .529-.545L.243-.228Z" fill="#e12329"/><path transform="matrix(1,0,0,-1,230.0144,450.8853)" d="M0 0 1.437-1.302 1.093-1.682 .296-1.503C.067-1.451-.189-1.374-.409-1.291L-.415-1.297C-.206-1.448-.006-1.618 .209-1.813L.629-2.194 .359-2.492-1.078-1.19-.769-.848 .064-1.044C.294-1.098 .565-1.172 .797-1.254L.801-1.246C.603-1.082 .397-.903 .162-.691L-.27-.299Z" fill="#e12329"/><path transform="matrix(1,0,0,-1,229.6625,454.0174)" d="M0 0-.342-.276-1.325 .949-1.926 .466-2.157 .753-1.213 1.511Z" fill="#e12329"/><path transform="matrix(1,0,0,-1,227.7365,455.42109)" d="M0 0-1.039 1.636-.667 1.872 .371 .236Z" fill="#e12329"/><path transform="matrix(1,0,0,-1,224.7075,454.893)" d="M0 0C.104 .099 .309 .264 .542 .371 .863 .52 1.133 .546 1.367 .464 1.599 .387 1.794 .199 1.911-.061 2.179-.648 1.908-1.178 1.331-1.446 1.103-1.55 .908-1.587 .802-1.585L.738-1.228C.854-1.225 .99-1.204 1.183-1.114 1.515-.961 1.679-.657 1.503-.275 1.335 .088 1.009 .197 .682 .046 .591 .004 .523-.041 .499-.071L.669-.439 .94-.313 1.084-.624 .428-.927ZM1.785-1.743C1.751-1.689 1.682-1.644 1.575-1.694 1.465-1.745 1.45-1.821 1.466-1.89L1.263-1.984C1.18-1.791 1.228-1.601 1.476-1.486 1.735-1.366 1.903-1.457 1.994-1.646Z" fill="#e12329"/><path transform="matrix(1,0,0,-1,224.2092,456.98359)" d="M0 0-.57 1.852-.149 1.982 .421 .13Z" fill="#e12329"/><path transform="matrix(1,0,0,-1,220.1193,456.211)" d="M0 0C-.31 0-.561-.251-.561-.56-.561-.87-.31-1.121 0-1.121 .31-1.121 .561-.87 .561-.56 .561-.251 .31 0 0 0" fill="#e12329"/><path transform="matrix(1,0,0,-1,218.8232,436.3912)" d="M0 0C.052 .613 .802 .809 .702 1.401 .578 .709 .034 .842 0 0M-.339-.596C-.424-.383-.466-.151-.456 .096-.436 .598-.204 1.05 .151 1.367 .509 1.686 .594 1.975 .403 2.228 .909 2.088 1.16 1.761 1.156 1.248 1.123 .426 .442 .292 .406-.596ZM2.523 1.387C2.864 1.068 3.069 .608 3.049 .096 3.039-.149 2.978-.384 2.878-.596H2.206C2.432-.331 2.711-.115 2.647 .261 2.56-.223 2.269-.304 2.089-.596H1.341C1.374-.509 1.431-.432 1.523-.341 1.576-.288 1.635-.238 1.696-.187 1.761-.133 1.829-.079 1.896-.024 2.165 .198 2.481 .486 2.528 .94 2.544 1.105 2.548 1.254 2.523 1.387M1.157-.596H.582C.598-.208 .749 .024 .923 .26 .97 .323 1.016 .385 1.059 .45 1.106 .519 1.15 .591 1.188 .669 1.268 .831 1.323 1.019 1.332 1.251 1.335 1.574 1.219 1.838 1.071 2.037 .468 2.791 .714 3.49 1.327 3.637 .981 3.298 1.014 2.943 1.397 2.507 1.406 2.717 1.519 2.844 1.71 2.844 1.519 2.648 1.602 2.459 1.787 2.209 1.828 2.158 1.877 2.101 1.938 2.039 2.263 1.707 2.399 1.421 2.352 .951 2.276 .202 1.318-.032 1.157-.596" fill="#e12329"/><path transform="matrix(1,0,0,-1,220.6991,445.4306)" d="M0 0C-.112-.179-.27-.327-.455-.429-.619-.521-.804-.576-1.001-.585-1.022-.588-1.044-.588-1.065-.588-1.385-.588-1.677-.469-1.899-.272-2.161-.042-2.326 .297-2.326 .673-2.326 .916-2.258 1.145-2.137 1.337-2.007 1.547-1.818 1.716-1.591 1.819-1.543 1.842-1.494 1.861-1.441 1.877-1.322 1.914-1.196 1.934-1.065 1.934-.618 1.934-.223 1.699 0 1.347-.185 1.553-.452 1.682-.75 1.682-.9 1.682-1.041 1.649-1.169 1.591-1.215 1.57-1.261 1.544-1.302 1.516-1.51 1.381-1.665 1.172-1.729 .925-1.749 .844-1.759 .761-1.759 .673-1.759 .447-1.685 .237-1.559 .069-1.374-.176-1.082-.335-.752-.335H-.75C-.684-.335-.619-.329-.557-.317-.338-.275-.144-.161 0 0" fill="#e12329"/><path transform="matrix(1,0,0,-1,221.5738,444.8555)" d="M0 0 .198-.273-.237-.131-.507-.502V-.044L-.942 .098-.507 .24V.697L-.391 .538-.237 .327 .198 .468-.072 .098Z" fill="#e12329"/><path transform="matrix(1,0,0,-1,220.0616,441.9162)" d="M0 0C-1.534 0-2.777-1.243-2.777-2.777-2.777-4.31-1.534-5.553 0-5.553 1.534-5.553 2.776-4.31 2.776-2.777 2.776-1.243 1.534 0 0 0M0-5.256C-1.37-5.256-2.48-4.146-2.48-2.777-2.48-1.407-1.37-.296 0-.296 1.37-.296 2.48-1.407 2.48-2.777 2.48-4.146 1.37-5.256 0-5.256" fill="#e12329"/><path transform="matrix(1,0,0,-1,228.5808,443.66999)" d="M0 0-.35 .348 .015-4.563C-1.246-4.674-1.962-4.764-3.219-4.587-3.786-4.506-4.352-4.395-4.918-4.337-6.618-4.165-6.872-4.278-7.936-5.046L-7.933-4.642C-6.879-3.911-6.506-3.853-4.886-4.018-3.68-4.14-2.516-4.461-1.291-4.354L-.331-4.271-.705 .7-1.052 1.044-.678-3.978C-1.596-4.058-2.2-4.081-3.128-3.949-3.703-3.868-4.278-3.756-4.853-3.698-6.384-3.541-6.871-3.548-7.93-4.25L-7.927-3.863C-6.876-3.202-6.252-3.232-4.82-3.377-4.24-3.436-3.662-3.548-3.082-3.631-2.362-3.733-1.746-3.748-1.025-3.685L-1.403 1.394-1.436 1.426-1.758 1.738-1.76 1.754-1.776 1.752V1.748C-2.035 1.764-2.291 1.801-2.587 1.849-3.516 2.002-5.073 2.185-5.921 2.191-6.547 2.195-7.186 2.097-7.82 1.813L-7.801 2.592C-7.803 2.59-7.803 2.6-7.803 2.6V2.856C-7.728 2.896-7.67 2.945-7.647 3.004-7.59 3.153-7.523 3.219-7.439 3.205V3.324C-6.702 3.598-6.242 4.088-6.051 4.785L-5.975 5.168C-5.961 5.281-5.951 5.399-5.948 5.522L-6.292 5.868V6.443H-10.6V5.868L-10.942 5.522C-10.946 5.402-10.939 5.286-10.925 5.173L-10.843 4.774C-10.646 4.112-10.157 3.58-9.453 3.324V3.205C-9.334 3.207-9.28 3.132-9.258 3.019-9.216 2.935-9.159 2.88-9.088 2.856L-9.076 2.608-9.056 1.791C-9.707 2.093-10.362 2.195-11.004 2.191-11.851 2.185-13.393 2.017-14.323 1.865-14.622 1.816-14.881 1.779-15.142 1.763-14.792 1.763-14.439 1.79-14.099 1.831-13.524 1.899-12.269 1.91-11.691 1.961-10.929 2.028-10.169 1.896-9.424 1.534-9.172 1.624-8.904 1.676-8.624 1.687L-8.614 2.873H-8.278L-8.266 1.679C-8.016 1.656-7.777 1.598-7.552 1.511-6.79 1.891-6.013 2.03-5.235 1.961-4.656 1.91-3.385 1.884-2.811 1.815-2.474 1.775-2.123 1.748-1.776 1.748V1.745L-1.774 1.648-1.396-3.381-1.645-3.392C-2.039-3.411-2.494-3.362-2.999-3.288-3.881-3.159-4.785-2.991-5.675-2.984-5.769-2.983-5.862-2.985-5.956-2.987-6.223-2.996-6.485-3.026-6.744-3.073-7.15-3.425-7.66-3.66-8.224-3.721V-3.785L-8.23-6.698C-8.23-6.814-8.325-6.908-8.441-6.908-8.558-6.908-8.652-6.814-8.653-6.698L-8.657-4.919C-8.656-4.92-8.654-4.921-8.653-4.922L-8.657-4.919-8.659-3.785-8.66-3.73C-9.296-3.698-9.873-3.448-10.319-3.051-10.533-3.018-10.75-2.995-10.97-2.987-11.063-2.985-11.156-2.983-11.251-2.984-12.14-2.991-13.044-3.159-13.926-3.288-14.431-3.362-14.886-3.411-15.28-3.392L-15.529-3.381-15.152 1.648-15.15 1.745-15.149 1.752-15.166 1.754-15.167 1.738-15.49 1.426-15.522 1.394-15.9-3.685C-15.178-3.748-14.562-3.733-13.843-3.631-13.263-3.548-12.684-3.436-12.105-3.377-10.659-3.23-10.019-3.262-8.946-3.953L-8.943-4.324C-10.021-3.6-10.53-3.54-12.072-3.698-12.647-3.756-13.221-3.868-13.797-3.949-14.725-4.081-15.329-4.058-16.247-3.978L-15.873 1.044-16.221 .7-16.594-4.271-15.634-4.354C-14.409-4.461-13.245-4.14-12.039-4.018-10.408-3.851-10.015-3.964-8.941-4.717L-8.938-5.11C-10.043-4.306-10.282-4.162-12.006-4.337-12.573-4.395-13.139-4.506-13.706-4.587-14.963-4.764-15.679-4.674-16.941-4.563L-16.575 .348-16.925 0-17.287-4.856C-15.866-4.98-15.058-5.103-13.66-4.905-13.097-4.825-12.536-4.715-11.973-4.658-10.665-4.525-10.243-4.585-9.416-5.181L-8.936-5.518-8.932-6.049C-8.932-6.052-8.932-6.052-8.932-6.055V-6.733C-8.932-7.003-8.711-7.224-8.442-7.224H-8.434C-8.164-7.224-7.943-7.003-7.943-6.733V-6.229L-7.938-5.466-7.509-5.181C-6.681-4.585-6.26-4.525-4.952-4.658-4.389-4.715-3.828-4.825-3.265-4.905-1.867-5.103-1.06-4.98 .362-4.856ZM-10.224 6.078H-6.665V5.734H-10.224ZM-10.365 4.556C-10.441 4.696-10.496 4.844-10.532 5.004-10.553 5.101-10.567 5.203-10.574 5.307H-6.321C-6.325 5.205-6.339 5.103-6.362 5.004-6.396 4.848-6.454 4.696-6.533 4.553-6.774 4.109-7.214 3.745-7.791 3.58H-7.872-8.327-8.564L-9.014 3.581-9.099 3.58C-9.686 3.763-10.126 4.102-10.365 4.556M-7.992 3.028H-8.264-8.628-8.899C-8.946 3.053-8.98 3.087-8.996 3.137-9.011 3.198-9.044 3.249-9.099 3.301L-9.1 3.323H-8.947-7.946-7.792L-7.791 3.301C-7.843 3.256-7.874 3.214-7.887 3.164-7.898 3.103-7.934 3.059-7.992 3.028" fill="#e12329"/><path transform="matrix(1,0,0,-1,251.3445,436.7874)" d="M0 0C.196-.045 .512-.045 .799-.045 2.879-.06 4.236 1.085 4.236 3.511 4.25 5.622 3.015 6.737 1.04 6.737 .528 6.737 .196 6.692 0 6.647ZM-2.306 8.289C-1.462 8.425-.361 8.501 .799 8.501 2.728 8.501 3.98 8.154 4.959 7.416 6.014 6.632 6.677 5.38 6.677 3.587 6.677 1.644 5.969 .301 4.989-.528 3.919-1.417 2.291-1.838 .302-1.838-.889-1.838-1.733-1.764-2.306-1.688Z" fill="#e12329"/><path transform="matrix(1,0,0,-1,259.643,426.7494)" d="M0 0C0 .588 .468 1.04 1.056 1.04 1.628 1.04 2.065 .588 2.065 0 2.065-.543 1.628-1.025 1.056-1.025 .452-1.025 0-.543 0 0M2.185-11.771H-.12100005V-1.6129999H2.185Z" fill="#e12329"/><path transform="matrix(1,0,0,-1,263.8158,438.5206)" d="M0 0V10.158H2.683L4.793 6.436C5.396 5.366 5.998 4.099 6.451 2.954H6.496C6.346 4.295 6.3 5.667 6.3 7.189V10.158H8.411V0H5.998L3.828 3.919C3.226 5.004 2.562 6.315 2.065 7.505L2.02 7.491C2.08 6.149 2.11 4.718 2.11 3.059V0Z" fill="#e12329"/><path transform="matrix(1,0,0,-1,282.2105,426.7494)" d="M0 0C0 .588 .437 1.04 1.025 1.04 1.613 1.04 2.035 .588 2.035 0 2.035-.557 1.613-1.025 1.025-1.025 .422-1.025 0-.557 0 0M-3-6.723C-3-8.712-2.065-10.114-.528-10.114 1.025-10.114 1.914-8.637 1.914-6.661 1.914-4.838 1.039-3.27-.543-3.27-2.095-3.27-3-4.747-3-6.723M-3.135 0C-3.135 .588-2.683 1.04-2.095 1.04-1.537 1.04-1.1 .588-1.1 0-1.1-.557-1.523-1.025-2.095-1.025-2.683-1.025-3.135-.557-3.135 0M4.341-6.587C4.341-9.918 2.321-11.936-.648-11.936-3.662-11.936-5.426-9.661-5.426-6.768-5.426-3.723-3.482-1.448-.482-1.448 2.638-1.448 4.341-3.783 4.341-6.587" fill="#e12329"/><path transform="matrix(1,0,0,-1,291.8803,425.845)" d="M0 0C.046-.332 .272-.693 .889-.693 1.522-.693 1.763-.361 1.839 0H3.014C2.984-1.1 2.336-1.9 .904-1.9-.588-1.9-1.191-1.1-1.206 0ZM4.657-12.208C3.949-12.45 2.608-12.781 1.266-12.781-.588-12.781-1.929-12.314-2.864-11.41-3.798-10.535-4.311-9.209-4.295-7.717-4.281-4.341-1.824-2.412 1.507-2.412 2.818-2.412 3.828-2.668 4.325-2.909L3.843-4.747C3.286-4.507 2.592-4.311 1.477-4.311-.437-4.311-1.884-5.396-1.884-7.596-1.884-9.691-.573-10.927 1.311-10.927 1.839-10.927 2.261-10.867 2.442-10.777V-8.652H.874V-6.857H4.657Z" fill="#e12329"/><path transform="matrix(1,0,0,-1,300.6003,432.8688)" d="M0 0H.904C2.05 0 2.728 .573 2.728 1.462 2.728 2.397 2.095 2.864 1.04 2.878 .482 2.878 .166 2.834 0 2.804ZM-2.276 4.371C-1.537 4.491-.437 4.582 .784 4.582 2.291 4.582 3.346 4.355 4.07 3.783 4.673 3.301 5.004 2.593 5.004 1.658 5.004 .361 4.085-.528 3.21-.844V-.889C3.919-1.176 4.311-1.854 4.567-2.789 4.883-3.934 5.2-5.26 5.396-5.652H3.045C2.879-5.365 2.638-4.536 2.337-3.286 2.065-2.019 1.628-1.673 .694-1.658H0V-5.652H-2.276Z" fill="#e12329"/><path transform="matrix(1,0,0,-1,313.3012,434.2254)" d="M0 0H-3.738V-2.411H.437V-4.295H-6.044V5.863H.226V3.979H-3.738V1.869H0Z" fill="#e12329"/><path transform="matrix(1,0,0,-1,317.3353,430.29139)" d="M0 0H-2.728V1.929H5.079V0H2.306V-8.229H0Z" fill="#e12329"/><path transform="matrix(1,0,0,-1,323.7508,426.7494)" d="M0 0C0 .588 .468 1.04 1.056 1.04 1.628 1.04 2.065 .588 2.065 0 2.065-.543 1.628-1.025 1.056-1.025 .452-1.025 0-.543 0 0M2.185-11.771H-.12100005V-1.6129999H2.185Z" fill="#e12329"/><path transform="matrix(1,0,0,-1,336.5147,434.6314)" d="M0 0C-.046 1.221-.09 2.698-.09 4.175H-.136C-.452 2.878-.874 1.431-1.266 .241L-2.502-3.724H-4.296L-5.381 .21C-5.712 1.401-6.059 2.848-6.3 4.175H-6.33C-6.39 2.803-6.436 1.235-6.511-.031L-6.692-3.889H-8.817L-8.169 6.269H-5.109L-4.115 2.878C-3.798 1.702-3.482 .437-3.256-.755H-3.21C-2.924 .421-2.577 1.763-2.246 2.894L-1.161 6.269H1.839L2.396-3.889H.151Z" fill="#e12329"/><path transform="matrix(1,0,0,-1,340.7868,426.7494)" d="M0 0C0 .588 .468 1.04 1.055 1.04 1.628 1.04 2.065 .588 2.065 0 2.065-.543 1.628-1.025 1.055-1.025 .452-1.025 0-.543 0 0M2.185-11.771H-.12100005V-1.6129999H2.185Z" fill="#e12329"/><path transform="matrix(1,0,0,-1,257.5241,456.1286)" d="M0 0C-.708-.242-2.05-.573-3.391-.573-5.245-.573-6.586-.106-7.521 .798-8.455 1.673-8.968 2.999-8.952 4.491-8.938 7.867-6.481 9.796-3.15 9.796-1.839 9.796-.829 9.54-.332 9.299L-.814 7.461C-1.371 7.701-2.065 7.897-3.18 7.897-5.094 7.897-6.541 6.812-6.541 4.612-6.541 2.517-5.23 1.281-3.346 1.281-2.818 1.281-2.396 1.341-2.215 1.431V3.556H-3.783V5.351H0Z" fill="#e12329"/><path transform="matrix(1,0,0,-1,265.3558,452.3009)" d="M0 0H-3.738V-2.411H.437V-4.295H-6.044V5.863H.226V3.979H-3.738V1.869H0Z" fill="#e12329"/><path transform="matrix(1,0,0,-1,267.3557,456.5962)" d="M0 0V10.158H2.683L4.793 6.436C5.396 5.366 5.999 4.099 6.451 2.954H6.496C6.346 4.295 6.3 5.667 6.3 7.189V10.158H8.41V0H5.999L3.828 3.919C3.226 5.004 2.562 6.315 2.065 7.505L2.02 7.491C2.08 6.149 2.11 4.718 2.11 3.059V0Z" fill="#e12329"/><path transform="matrix(1,0,0,-1,283.7925,452.3009)" d="M0 0H-3.738V-2.411H.437V-4.295H-6.044V5.863H.226V3.979H-3.738V1.869H0Z" fill="#e12329"/><path transform="matrix(1,0,0,-1,285.7924,446.43769)" d="M0 0H2.306V-8.229H6.346V-10.158H0Z" fill="#e12329"/><path transform="matrix(1,0,0,-1,305.1237,452.7069)" d="M0 0C-.046 1.221-.09 2.698-.09 4.175H-.136C-.452 2.878-.874 1.431-1.266 .241L-2.502-3.724H-4.296L-5.381 .21C-5.712 1.401-6.059 2.848-6.3 4.175H-6.33C-6.39 2.803-6.436 1.235-6.511-.031L-6.692-3.889H-8.817L-8.169 6.269H-5.109L-4.115 2.878C-3.798 1.702-3.482 .437-3.256-.755H-3.21C-2.924 .421-2.577 1.763-2.246 2.894L-1.161 6.269H1.839L2.396-3.889H.15Z" fill="#e12329"/><path transform="matrix(1,0,0,-1,314.053,444.8249)" d="M0 0C0 .588 .437 1.04 1.025 1.04 1.598 1.04 2.035 .588 2.035 0 2.035-.557 1.613-1.025 1.025-1.025 .422-1.025 0-.557 0 0M-3.135 0C-3.135 .588-2.682 1.04-2.094 1.04-1.537 1.04-1.1 .588-1.1 0-1.1-.557-1.522-1.025-2.094-1.025-2.698-1.025-3.135-.557-3.135 0M-2.486-1.613V-7.461C-2.486-9.209-1.824-10.098-.648-10.098 .558-10.098 1.221-9.254 1.221-7.461V-1.613H3.512V-7.309C3.512-10.445 1.929-11.936-.723-11.936-3.285-11.936-4.792-10.52-4.792-7.28V-1.613Z" fill="#e12329"/><path transform="matrix(1,0,0,-1,321.8545,454.8629)" d="M0 0C.196-.045 .512-.045 .799-.045 2.879-.06 4.236 1.085 4.236 3.511 4.25 5.622 3.015 6.737 1.04 6.737 .528 6.737 .196 6.692 0 6.647ZM-2.306 8.289C-1.462 8.425-.361 8.501 .799 8.501 2.728 8.501 3.98 8.154 4.959 7.416 6.014 6.632 6.677 5.38 6.677 3.587 6.677 1.642 5.969 .301 4.989-.528 3.919-1.417 2.291-1.838 .302-1.838-.889-1.838-1.733-1.764-2.306-1.688Z" fill="#e12329"/><path transform="matrix(1,0,0,-1,334.8102,444.8249)" d="M0 0C0 .588 .437 1.04 1.025 1.04 1.598 1.04 2.035 .588 2.035 0 2.035-.557 1.613-1.025 1.025-1.025 .422-1.025 0-.557 0 0M-3.135 0C-3.135 .588-2.682 1.04-2.094 1.04-1.537 1.04-1.1 .588-1.1 0-1.1-.557-1.522-1.025-2.094-1.025-2.698-1.025-3.135-.557-3.135 0M-2.486-1.613V-7.461C-2.486-9.209-1.824-10.098-.648-10.098 .558-10.098 1.221-9.254 1.221-7.461V-1.613H3.512V-7.309C3.512-10.445 1.929-11.936-.723-11.936-3.285-11.936-4.792-10.52-4.792-7.28V-1.613Z" fill="#e12329"/><path transform="matrix(1,0,0,-1,342.5809,450.9443)" d="M0 0H.904C2.05 0 2.728 .573 2.728 1.462 2.728 2.397 2.095 2.864 1.04 2.878 .482 2.878 .166 2.834 0 2.804ZM-2.276 4.371C-1.537 4.491-.437 4.582 .784 4.582 2.291 4.582 3.346 4.355 4.07 3.783 4.673 3.301 5.004 2.593 5.004 1.658 5.004 .361 4.085-.528 3.21-.844V-.889C3.919-1.176 4.311-1.854 4.567-2.789 4.883-3.934 5.2-5.26 5.396-5.652H3.045C2.879-5.365 2.638-4.536 2.337-3.286 2.065-2.019 1.628-1.673 .694-1.658H0V-5.652H-2.276Z" fill="#e12329"/><path transform="matrix(1,0,0,-1,349.238,446.43769)" d="M0 0H2.306V-8.229H6.346V-10.158H0Z" fill="#e12329"/><path transform="matrix(1,0,0,-1,361.2458,444.8249)" d="M0 0C0 .588 .437 1.04 1.026 1.04 1.598 1.04 2.035 .588 2.035 0 2.035-.557 1.613-1.025 1.026-1.025 .422-1.025 0-.557 0 0M-3.135 0C-3.135 .588-2.682 1.04-2.094 1.04-1.537 1.04-1.1 .588-1.1 0-1.1-.557-1.522-1.025-2.094-1.025-2.698-1.025-3.135-.557-3.135 0M-2.486-1.613V-7.461C-2.486-9.209-1.823-10.098-.647-10.098 .558-10.098 1.221-9.254 1.221-7.461V-1.613H3.512V-7.309C3.512-10.445 1.929-11.936-.723-11.936-3.285-11.936-4.792-10.52-4.792-7.28V-1.613Z" fill="#e12329"/><path transform="matrix(1,0,0,-1,370.5692,443.9205)" d="M0 0C.046-.332 .272-.693 .889-.693 1.523-.693 1.763-.361 1.839 0H3.014C2.984-1.1 2.336-1.9 .904-1.9-.588-1.9-1.191-1.1-1.206 0ZM4.657-12.208C3.949-12.45 2.608-12.781 1.266-12.781-.588-12.781-1.929-12.314-2.864-11.41-3.798-10.535-4.311-9.209-4.295-7.717-4.281-4.341-1.824-2.412 1.507-2.412 2.818-2.412 3.828-2.668 4.325-2.909L3.843-4.747C3.286-4.507 2.592-4.311 1.477-4.311-.437-4.311-1.884-5.396-1.884-7.596-1.884-9.691-.573-10.927 1.311-10.927 1.839-10.927 2.261-10.867 2.442-10.777V-8.652H.874V-6.857H4.657Z" fill="#e12329"/><path transform="matrix(1,0,0,-1,381.7917,444.8249)" d="M0 0C0 .588 .437 1.04 1.026 1.04 1.598 1.04 2.035 .588 2.035 0 2.035-.557 1.613-1.025 1.026-1.025 .422-1.025 0-.557 0 0M-3.135 0C-3.135 .588-2.682 1.04-2.094 1.04-1.537 1.04-1.1 .588-1.1 0-1.1-.557-1.522-1.025-2.094-1.025-2.698-1.025-3.135-.557-3.135 0M-2.486-1.613V-7.461C-2.486-9.209-1.824-10.098-.647-10.098 .558-10.098 1.221-9.254 1.221-7.461V-1.613H3.512V-7.309C3.512-10.445 1.929-11.936-.723-11.936-3.285-11.936-4.792-10.52-4.792-7.28V-1.613Z" fill="#e12329"/></g></svg>