<svg xmlns="http://www.w3.org/2000/svg" xmlns:xlink="http://www.w3.org/1999/xlink" xmlns:inkscape="http://www.inkscape.org/namespaces/inkscape" version="1.1" width="523.67" height="188.33" viewBox="96.33 264 523.67 188.33">
<defs>
<clipPath id="clip_1">
<path transform="matrix(1,0,0,-1,0,716.587)" d="M0 716.587H716.587V0H0Z"/>
</clipPath>
</defs>
<g>
<path transform="matrix(1,0,0,-1,575.3442,385.12318)" d="M0 0-2.047-.552-2.48 1.858 .821 2.851H2.732V-10.625H0Z" fill="#606161"/>
<g clip-path="url(#clip_1)">
<path transform="matrix(1,0,0,-1,586.1032,386.74848)" d="M0 0V.04C0 1.341-.746 2.186-1.994 2.186-3.208 2.186-3.937 1.341-3.937 .06V.02C-3.937-1.277-3.184-2.098-1.946-2.098-.725-2.098 0-1.252 0 0M-.056-3.61C-.705-4.123-1.489-4.431-2.502-4.431-4.861-4.431-6.645-2.96-6.645-.13V-.074C-6.645 2.658-4.698 4.61-2.043 4.61-.573 4.61 .4 4.191 1.245 3.32 2.181 2.37 2.788 .938 2.788-1.818V-1.923C2.788-6.589 .842-9.228-2.54-9.228-4.072-9.228-5.232-8.724-6.325-7.861L-4.989-5.671C-4.205-6.31-3.441-6.678-2.502-6.678-.822-6.678-.15-5.122-.056-3.61" fill="#606161"/>
<path transform="matrix(1,0,0,-1,589.3408,394.27)" d="M0 0 1.543 2.057C2.406 1.315 3.199 .854 4.216 .854 5.456 .854 6.255 1.61 6.255 2.821V2.841C6.255 4.033 5.34 4.734 4.1 4.734 3.414 4.734 2.788 4.55 2.266 4.318L.722 5.33 1.106 11.894H8.423V9.416H3.394L3.238 6.989C3.682 7.099 4.1 7.179 4.731 7.179 7.009 7.179 8.973 5.956 8.973 2.956V2.895C8.973 .059 7.045-1.706 4.279-1.706 2.56-1.706 1.14-1.08 0 0" fill="#606161"/>
<path transform="matrix(1,0,0,-1,605.2891,386.09788)" d="M0 0V.016C0 .994-.682 1.66-1.655 1.66-2.649 1.66-3.338 .994-3.338 .016V0C-3.338-1.037-2.649-1.719-1.655-1.719-.682-1.719 0-1.037 0 0M.335-5.772V-5.732C.335-4.619-.53-3.951-1.655-3.951-2.801-3.951-3.641-4.619-3.641-5.732V-5.772C-3.641-6.837-2.855-7.566-1.655-7.566-.467-7.566 .335-6.861 .335-5.772M-6.333-6.002V-5.931C-6.333-4.262-5.553-3.322-4.333-2.712-5.288-2.102-5.936-1.176-5.936 .208V.288C-5.936 2.345-4.216 3.914-1.655 3.914 .878 3.914 2.623 2.377 2.623 .288V.208C2.623-1.176 1.954-2.102 1.001-2.712 2.181-3.358 3.004-4.237 3.004-5.883V-5.956C3.004-8.383 1.02-9.838-1.655-9.838-4.351-9.838-6.333-8.351-6.333-6.002" fill="#606161"/>
<path transform="matrix(1,0,0,-1,124.2277,439.58317)" d="M0 0C0-.463-.165-.661-.595-.661H-2.513C-2.975-.661-3.141-.463-3.141 0V15.076C-3.141 15.539-2.975 15.737-2.513 15.737H-.595C-.165 15.737 0 15.539 0 15.076ZM0 18.812C0 18.382-.165 18.183-.595 18.183H-2.513C-2.975 18.183-3.141 18.382-3.141 18.812V21.787C-3.141 22.25-2.975 22.448-2.513 22.448H-.595C-.165 22.448 0 22.25 0 21.787Z" fill="#606161"/>
<path transform="matrix(1,0,0,-1,151.7975,439.61628)" d="M0 0C0-.43-.165-.628-.595-.628H-2.546C-2.975-.628-3.141-.43-3.141 0V15.175C-3.207 15.01-3.637 13.489-3.934 12.728L-7.769 3.438C-7.935 3.009-8.199 2.777-8.596 2.777H-10.315C-10.745 2.777-10.943 3.042-11.108 3.438L-15.208 13.125C-15.539 13.852-15.803 15.01-15.836 15.109V0C-15.836-.43-16.001-.628-16.431-.628H-18.283C-18.712-.628-18.878-.43-18.878 0V21.225C-18.878 21.655-18.712 21.853-18.283 21.853H-16.431C-16.134 21.853-15.968 21.721-15.869 21.49L-10.15 8.199C-9.918 7.637-9.488 6.348-9.455 6.215-9.422 6.348-8.959 7.604-8.728 8.166L-3.108 21.556C-3.009 21.787-2.843 21.853-2.546 21.853H-.595C-.165 21.853 0 21.655 0 21.225Z" fill="#606161"/>
<path transform="matrix(1,0,0,-1,166.5031,425.89598)" d="M0 0C-.397 1.223-.86 4.463-.893 4.827-.959 4.529-1.389 1.488-1.818 .066L-3.703-6.017H1.851ZM.198 8.133C.628 8.133 .86 7.935 .992 7.505L7.406-13.72C7.538-14.117 7.373-14.348 6.91-14.348H4.827C4.397-14.348 4.199-14.117 4.1-13.72L2.546-8.596H-4.43L-5.951-13.72C-6.05-14.117-6.248-14.348-6.678-14.348H-8.596C-9.026-14.348-9.191-14.117-9.059-13.72L-2.645 7.505C-2.513 7.935-2.281 8.133-1.851 8.133Z" fill="#606161"/>
<path transform="matrix(1,0,0,-1,199.1292,439.61628)" d="M0 0C0-.43-.165-.628-.595-.628H-2.546C-2.975-.628-3.141-.43-3.141 0V15.175C-3.207 15.01-3.637 13.489-3.934 12.728L-7.769 3.438C-7.935 3.009-8.199 2.777-8.596 2.777H-10.315C-10.745 2.777-10.943 3.042-11.108 3.438L-15.208 13.125C-15.539 13.852-15.803 15.01-15.836 15.109V0C-15.836-.43-16.001-.628-16.431-.628H-18.283C-18.712-.628-18.878-.43-18.878 0V21.225C-18.878 21.655-18.712 21.853-18.283 21.853H-16.431C-16.134 21.853-15.968 21.721-15.869 21.49L-10.15 8.199C-9.918 7.637-9.488 6.348-9.455 6.215-9.422 6.348-8.959 7.604-8.728 8.166L-3.108 21.556C-3.009 21.787-2.843 21.853-2.546 21.853H-.595C-.165 21.853 0 21.655 0 21.225Z" fill="#606161"/>
<path transform="matrix(1,0,0,-1,225.271,427.11927)" d="M0 0H8.596V8.695C8.596 9.158 8.761 9.356 9.191 9.356H11.241C11.67 9.356 11.836 9.158 11.836 8.695V-12.464C11.836-12.927 11.67-13.125 11.241-13.125H9.191C8.761-13.125 8.596-12.927 8.596-12.464V-2.744H0V-12.464C0-12.927-.132-13.125-.595-13.125H-2.612C-3.042-13.125-3.207-12.927-3.207-12.464V8.695C-3.207 9.158-3.042 9.356-2.612 9.356H-.595C-.132 9.356 0 9.158 0 8.695Z" fill="#606161"/>
<path transform="matrix(1,0,0,-1,251.1849,425.89598)" d="M0 0C-.397 1.223-.86 4.463-.893 4.827-.959 4.529-1.389 1.488-1.818 .066L-3.703-6.017H1.851ZM.198 8.133C.628 8.133 .86 7.935 .992 7.505L7.406-13.72C7.538-14.117 7.373-14.348 6.91-14.348H4.827C4.397-14.348 4.199-14.117 4.1-13.72L2.546-8.596H-4.43L-5.951-13.72C-6.05-14.117-6.249-14.348-6.678-14.348H-8.596C-9.026-14.348-9.191-14.117-9.059-13.72L-2.645 7.505C-2.513 7.935-2.281 8.133-1.851 8.133Z" fill="#606161"/>
<path transform="matrix(1,0,0,-1,275.9431,417.76307)" d="M0 0C.43 0 .628-.165 .628-.628V-2.116C.628-2.579 .43-2.744 0-2.744H-5.29V-21.82C-5.29-22.283-5.455-22.481-5.885-22.481H-7.935C-8.364-22.481-8.53-22.283-8.53-21.82V-2.744H-13.819C-14.282-2.744-14.448-2.579-14.448-2.116V-.628C-14.448-.165-14.282 0-13.819 0Z" fill="#606161"/>
<path transform="matrix(1,0,0,-1,286.2201,439.58317)" d="M0 0C0-.463-.165-.661-.595-.661H-2.513C-2.975-.661-3.141-.463-3.141 0V15.076C-3.141 15.539-2.975 15.737-2.513 15.737H-.595C-.165 15.737 0 15.539 0 15.076ZM0 18.812C0 18.382-.165 18.183-.595 18.183H-2.513C-2.975 18.183-3.141 18.382-3.141 18.812V21.787C-3.141 22.25-2.975 22.448-2.513 22.448H-.595C-.165 22.448 0 22.25 0 21.787Z" fill="#606161"/>
<path transform="matrix(1,0,0,-1,298.1198,420.50709)" d="M0 0V-8.629H4.1C7.075-8.629 8.397-7.538 8.397-5.753V-2.876C8.397-1.091 7.075 0 4.1 0ZM0-11.373V-19.076C0-19.539-.132-19.737-.595-19.737H-2.612C-3.042-19.737-3.207-19.539-3.207-19.076V2.083C-3.207 2.546-3.042 2.744-2.612 2.744H4.1C9.786 2.744 11.604 .364 11.604-2.347V-6.282C11.604-8.993 9.786-11.373 4.1-11.373Z" fill="#606161"/>
<path transform="matrix(1,0,0,-1,319.3729,437.50038)" d="M0 0H8.464C8.893 0 9.092-.132 9.092-.595V-2.116C9.092-2.579 8.893-2.744 8.464-2.744H-2.711C-3.075-2.744-3.24-2.513-3.24-2.083V19.076C-3.24 19.539-3.075 19.737-2.612 19.737H-.595C-.165 19.737 0 19.539 0 19.076Z" fill="#606161"/>
<path transform="matrix(1,0,0,-1,337.915,439.58317)" d="M0 0C0-.463-.165-.661-.595-.661H-2.513C-2.975-.661-3.141-.463-3.141 0V15.076C-3.141 15.539-2.975 15.737-2.513 15.737H-.595C-.165 15.737 0 15.539 0 15.076ZM0 18.812C0 18.382-.165 18.183-.595 18.183H-2.513C-2.975 18.183-3.141 18.382-3.141 18.812V21.787C-3.141 22.25-2.975 22.448-2.513 22.448H-.595C-.165 22.448 0 22.25 0 21.787Z" fill="#606161"/>
<path transform="matrix(1,0,0,-1,349.8471,437.50038)" d="M0 0H8.464C8.893 0 9.091-.132 9.091-.595V-2.116C9.091-2.579 8.893-2.744 8.464-2.744H-2.711C-3.075-2.744-3.24-2.513-3.24-2.083V19.076C-3.24 19.539-3.075 19.737-2.612 19.737H-.595C-.165 19.737 0 19.539 0 19.076Z" fill="#606161"/>
<path transform="matrix(1,0,0,-1,366.8684,440.2444)" d="M0 0C-.43 0-.595 .198-.595 .661V21.82C-.595 22.283-.43 22.481 0 22.481H11.307C11.737 22.481 11.935 22.316 11.935 21.853V20.365C11.935 19.903 11.737 19.737 11.307 19.737H2.612V13.059H10.712C11.175 13.059 11.373 12.894 11.373 12.431V11.009C11.373 10.579 11.175 10.381 10.712 10.381H2.612V2.744H11.67C12.1 2.744 12.299 2.612 12.299 2.149V.628C12.299 .165 12.1 0 11.67 0Z" fill="#606161"/>
<path transform="matrix(1,0,0,-1,390.2711,420.50709)" d="M0 0V-8.1H4.1C7.075-8.1 8.397-7.042 8.397-5.224V-2.876C8.397-1.091 7.075 0 4.1 0ZM0-10.844V-19.076C0-19.539-.132-19.737-.595-19.737H-2.612C-3.042-19.737-3.207-19.539-3.207-19.076V2.083C-3.207 2.546-3.042 2.744-2.612 2.744H4.1C9.786 2.744 11.604 .364 11.604-2.347V-5.786C11.604-7.802 10.579-9.621 7.736-10.414L11.704-19.076C11.869-19.473 11.571-19.737 11.108-19.737H9.125C8.662-19.737 8.596-19.473 8.397-19.076L4.662-10.844H4.1Z" fill="#606161"/>
<path transform="matrix(1,0,0,-1,430.0994,420.50709)" d="M0 0V-16.993H4.298C7.273-16.993 8.596-15.902 8.596-14.117V-2.876C8.596-1.091 7.273 0 4.298 0ZM-2.678-19.737C-3.075-19.737-3.207-19.506-3.207-19.076V2.083C-3.207 2.546-3.042 2.744-2.612 2.744H4.298C9.951 2.744 11.836 .364 11.836-2.347V-14.646C11.836-17.357 9.951-19.737 4.298-19.737Z" fill="#606161"/>
<path transform="matrix(1,0,0,-1,451.221,440.2444)" d="M0 0C-.43 0-.595 .198-.595 .661V21.82C-.595 22.283-.43 22.481 0 22.481H11.307C11.737 22.481 11.935 22.316 11.935 21.853V20.365C11.935 19.903 11.737 19.737 11.307 19.737H2.612V13.059H10.712C11.175 13.059 11.373 12.894 11.373 12.431V11.009C11.373 10.579 11.175 10.381 10.712 10.381H2.612V2.744H11.67C12.1 2.744 12.299 2.612 12.299 2.149V.628C12.299 .165 12.1 0 11.67 0Z" fill="#606161"/>
<path transform="matrix(1,0,0,-1,475.2505,420.50709)" d="M0 0V-8.1H4.1C7.075-8.1 8.397-7.042 8.397-5.224V-2.876C8.397-1.091 7.075 0 4.1 0ZM0-10.844V-19.076C0-19.539-.132-19.737-.595-19.737H-2.612C-3.042-19.737-3.207-19.539-3.207-19.076V2.083C-3.207 2.546-3.042 2.744-2.612 2.744H4.1C9.786 2.744 11.604 .364 11.604-2.347V-5.786C11.604-7.802 10.579-9.621 7.736-10.414L11.704-19.076C11.869-19.473 11.571-19.737 11.108-19.737H9.125C8.662-19.737 8.596-19.473 8.397-19.076L4.662-10.844H4.1Z" fill="#606161"/>
<path transform="matrix(1,0,0,-1,511.0165,439.61628)" d="M0 0C0-.43-.132-.628-.595-.628H-2.413C-2.744-.628-2.876-.529-3.009-.331L-10.778 13.29C-11.505 14.514-11.902 15.539-11.968 15.671V0C-11.968-.43-12.133-.628-12.563-.628H-14.415C-14.844-.628-15.01-.43-15.01 0V21.225C-15.01 21.655-14.844 21.853-14.415 21.853H-12.563C-12.299 21.853-12.133 21.754-12.034 21.589L-4.066 7.67C-3.604 6.877-3.042 5.554-3.042 5.554V21.225C-3.042 21.655-2.843 21.853-2.413 21.853H-.595C-.132 21.853 0 21.655 0 21.225Z" fill="#606161"/>
<path transform="matrix(1,0,0,-1,519.3421,440.2444)" d="M0 0C-.43 0-.595 .198-.595 .661V21.82C-.595 22.283-.43 22.481 0 22.481H11.307C11.737 22.481 11.935 22.316 11.935 21.853V20.365C11.935 19.903 11.737 19.737 11.307 19.737H2.612V13.059H10.712C11.175 13.059 11.373 12.894 11.373 12.431V11.009C11.373 10.579 11.175 10.381 10.712 10.381H2.612V2.744H11.67C12.1 2.744 12.299 2.612 12.299 2.149V.628C12.299 .165 12.1 0 11.67 0Z" fill="#606161"/>
<path transform="matrix(1,0,0,-1,544.9916,412.27497)" d="M0 0C0-1.091 .331-1.884 1.918-1.884 3.471-1.884 3.835-1.091 3.835 0V.595C3.835 .959 3.967 1.124 4.397 1.124H5.554C5.951 1.124 6.116 .959 6.116 .595V.099C6.116-2.314 4.827-3.802 1.851-3.802-1.157-3.802-2.314-2.314-2.314 .099V.595C-2.314 .959-2.149 1.124-1.752 1.124H-.562C-.165 1.124 0 .959 0 .595ZM8.794-16.729C9.224-16.729 9.422-16.894 9.422-17.324V-23.143C9.422-25.854 7.802-28.234 2.116-28.234-3.571-28.234-5.191-25.854-5.191-23.143V-10.315C-5.191-7.604-3.571-5.224 2.116-5.224 7.802-5.224 9.422-7.604 9.422-10.315V-11.77C9.422-12.199 9.257-12.398 8.827-12.398H6.91C6.447-12.398 6.282-12.199 6.282-11.77V-10.844C6.282-9.059 5.124-7.968 2.149-7.968-.827-7.968-1.951-9.059-1.951-10.844V-22.614C-1.951-24.399-.827-25.49 2.149-25.49 5.091-25.49 6.282-24.432 6.282-22.647V-19.473H2.347C1.918-19.473 1.719-19.308 1.719-18.845V-17.324C1.719-16.894 1.918-16.729 2.347-16.729Z" fill="#606161"/>
<path transform="matrix(1,0,0,-1,566.1778,439.58317)" d="M0 0C0-.463-.165-.661-.595-.661H-2.513C-2.975-.661-3.141-.463-3.141 0V15.076C-3.141 15.539-2.975 15.737-2.513 15.737H-.595C-.165 15.737 0 15.539 0 15.076ZM0 18.812C0 18.382-.165 18.183-.595 18.183H-2.513C-2.975 18.183-3.141 18.382-3.141 18.812V21.787C-3.141 22.25-2.975 22.448-2.513 22.448H-.595C-.165 22.448 0 22.25 0 21.787Z" fill="#606161"/>
<path transform="matrix(1,0,0,-1,348.6469,376.70057)" d="M0 0 29.9 .058C51.595 .058 62.152 10.211 62.152 31.09 62.152 51.959 51.586 62.114 29.862 62.114L0 62.179ZM-19.237 81.452 29.904 81.349C77.667 81.349 81.387 42.875 81.387 31.09 81.387 19.293 77.667-19.181 29.9-19.181 29.9-19.181-9.82-19.264-16.876-19.28H-19.237Z" fill="#d7252d"/>
<path transform="matrix(1,0,0,-1,488.6523,314.55729)" d="M0 0C7.875 0 24.489-2.209 29.54-19.655H-29.531C-24.489-2.209-7.879 0 0 0M0 19.246C-30.095 19.246-50.307-.973-50.307-31.065-50.307-61.622-30.557-81.378 0-81.378 22.2-81.378 39.666-70.358 46.698-51.898L47.921-48.703H27.092L26.399-49.801C19.588-60.533 6.933-62.139 0-62.139-10.363-62.139-26.962-58.859-30.392-38.895H30.515 49.464 49.888L50.067-36.733C50.228-34.765 50.309-32.912 50.309-31.065 50.309-.973 30.097 19.246 0 19.246" fill="#d7252d"/>
<path transform="matrix(1,0,0,-1,158.6092,314.53709)" d="M0 0C-28.044 0-31.076-21.732-31.076-31.074-31.076-42.676-27.043-62.143 0-62.143 11.604-62.143 31.06-58.101 31.06-31.074 31.06-3.029 9.344 0 0 0M0-81.378C-30.569-81.378-50.316-61.631-50.316-31.074-50.316-.977-30.097 19.235 0 19.235 30.09 19.235 50.302-.977 50.302-31.074 50.302-61.631 30.557-81.378 0-81.378" fill="#d7252d"/>
<path transform="matrix(1,0,0,-1,0,716.587)" d="M134.607 440.509H182.60599V427.646H134.607Z" fill="#d7252d"/>
<path transform="matrix(1,0,0,-1,318.3594,349.71589)" d="M0 0-.018 4.105C-.018 34.211-20.23 54.425-50.331 54.425-80.412 54.425-100.633 34.211-100.633 4.105L-100.647 0C-100.725-19.492-100.633-46.199-100.633-46.199H-81.492V4.105C-81.492 20.19-74.248 28.024-66.387 31.805-59.657 34.682-52.802 39.751-50.331 45.703-47.852 39.74-40.981 34.667-34.247 31.791-26.405 28.02-19.168 20.174-19.168 4.101V-46.199H-.018C-.018-46.199 .071-19.492 0 0" fill="#d7252d"/>
<path transform="matrix(1,0,0,-1,608.2935,314.56617)" d="M0 0V10.553 18.305L-2.032 18.602C-5.131 19.049-8.04 19.264-10.931 19.264-41.019 19.264-61.24-.939-61.24-31.045L-61.265-35.15C-61.329-54.626-61.265-81.349-61.265-81.349H-42.043V-31.045C-42.043-3-20.094 .204-10.763 .204-10.43 .204-.398 .02 0 0" fill="#d7252d"/>
</g>
</g>
</svg>
